<mxfile host="Electron" modified="2024-10-08T05:39:48.561Z" agent="Mozilla/5.0 (Macintosh; Intel Mac OS X 10_15_7) AppleWebKit/537.36 (KHTML, like Gecko) draw.io/21.5.1 Chrome/112.0.5615.204 Electron/24.6.0 Safari/537.36" etag="Q-5gYzrfkhTY3mYqdxBr" version="21.5.1" type="device" pages="2">
  <diagram id="pQM3D7o7C2Lg2CFQefj4" name="maven">
    <mxGraphModel dx="984" dy="664" grid="0" gridSize="10" guides="1" tooltips="1" connect="1" arrows="1" fold="1" page="1" pageScale="1" pageWidth="3300" pageHeight="4681" math="0" shadow="0">
      <root>
        <mxCell id="0" />
        <mxCell id="1" parent="0" />
        <mxCell id="fu1uBKd0ixMun855dZPL-51" value="" style="rounded=0;whiteSpace=wrap;html=1;fontFamily=Helvetica;fontSize=11;fillColor=#E6E6E6;strokeColor=none;shadow=1;glass=0;" parent="1" vertex="1">
          <mxGeometry x="444" y="248" width="730" height="244" as="geometry" />
        </mxCell>
        <mxCell id="fu1uBKd0ixMun855dZPL-48" value="" style="rounded=0;whiteSpace=wrap;html=1;fontFamily=Helvetica;fontSize=11;fillColor=#CFDDF0;strokeColor=none;shadow=1;glass=0;" parent="1" vertex="1">
          <mxGeometry x="484" y="258" width="520" height="188" as="geometry" />
        </mxCell>
        <mxCell id="fu1uBKd0ixMun855dZPL-49" style="edgeStyle=orthogonalEdgeStyle;rounded=0;orthogonalLoop=1;jettySize=auto;html=1;exitX=0.25;exitY=1;exitDx=0;exitDy=0;entryX=0.5;entryY=0;entryDx=0;entryDy=0;strokeColor=#EA6B66;dashed=1;endSize=5;endArrow=block;endFill=0;" parent="1" source="fu1uBKd0ixMun855dZPL-27" target="fu1uBKd0ixMun855dZPL-39" edge="1">
          <mxGeometry relative="1" as="geometry">
            <Array as="points">
              <mxPoint x="559" y="439" />
              <mxPoint x="519" y="439" />
            </Array>
          </mxGeometry>
        </mxCell>
        <mxCell id="fu1uBKd0ixMun855dZPL-50" style="edgeStyle=orthogonalEdgeStyle;rounded=0;orthogonalLoop=1;jettySize=auto;html=1;exitX=0.75;exitY=1;exitDx=0;exitDy=0;entryX=0.5;entryY=0;entryDx=0;entryDy=0;dashed=1;strokeColor=#EA6B66;endSize=5;endArrow=block;endFill=0;" parent="1" source="fu1uBKd0ixMun855dZPL-27" target="fu1uBKd0ixMun855dZPL-40" edge="1">
          <mxGeometry relative="1" as="geometry">
            <Array as="points">
              <mxPoint x="629" y="439" />
              <mxPoint x="669" y="439" />
            </Array>
          </mxGeometry>
        </mxCell>
        <mxCell id="fu1uBKd0ixMun855dZPL-27" value="commons-dependencies" style="rounded=1;whiteSpace=wrap;html=1;strokeWidth=0.5;fontSize=10;align=center;labelBackgroundColor=none;fillColor=#e1d5e7;strokeColor=#9673a6;fontColor=#000000;shadow=1;glass=0;" parent="1" vertex="1">
          <mxGeometry x="524" y="409" width="140" height="20" as="geometry" />
        </mxCell>
        <mxCell id="fu1uBKd0ixMun855dZPL-31" style="edgeStyle=orthogonalEdgeStyle;rounded=0;orthogonalLoop=1;jettySize=auto;html=1;exitX=0.5;exitY=1;exitDx=0;exitDy=0;entryX=0.5;entryY=0;entryDx=0;entryDy=0;strokeColor=#EA6B66;dashed=1;endSize=5;endArrow=block;endFill=0;" parent="1" source="fu1uBKd0ixMun855dZPL-28" target="fu1uBKd0ixMun855dZPL-27" edge="1">
          <mxGeometry relative="1" as="geometry" />
        </mxCell>
        <mxCell id="jNuLG_-AsigV2Xlp5zPn-2" style="edgeStyle=orthogonalEdgeStyle;rounded=0;orthogonalLoop=1;jettySize=auto;html=1;exitX=1;exitY=0.5;exitDx=0;exitDy=0;entryX=0;entryY=0.5;entryDx=0;entryDy=0;endArrow=open;strokeColor=#EA6B66;dashed=1;endSize=5;endFill=0;" parent="1" source="fu1uBKd0ixMun855dZPL-28" target="jNuLG_-AsigV2Xlp5zPn-1" edge="1">
          <mxGeometry relative="1" as="geometry" />
        </mxCell>
        <mxCell id="fu1uBKd0ixMun855dZPL-28" value="commons-parent" style="rounded=1;whiteSpace=wrap;html=1;strokeWidth=0.5;fontSize=10;align=center;labelBackgroundColor=none;fillColor=#e1d5e7;strokeColor=#9673a6;shadow=1;glass=0;" parent="1" vertex="1">
          <mxGeometry x="539" y="339" width="110" height="20" as="geometry" />
        </mxCell>
        <mxCell id="fu1uBKd0ixMun855dZPL-33" style="edgeStyle=orthogonalEdgeStyle;rounded=0;orthogonalLoop=1;jettySize=auto;html=1;exitX=0.25;exitY=1;exitDx=0;exitDy=0;entryX=0.75;entryY=0;entryDx=0;entryDy=0;strokeColor=#EA6B66;dashed=1;endSize=5;endArrow=block;endFill=0;" parent="1" source="fu1uBKd0ixMun855dZPL-29" target="fu1uBKd0ixMun855dZPL-27" edge="1">
          <mxGeometry relative="1" as="geometry">
            <Array as="points">
              <mxPoint x="874" y="389" />
              <mxPoint x="629" y="389" />
            </Array>
          </mxGeometry>
        </mxCell>
        <mxCell id="fu1uBKd0ixMun855dZPL-36" style="edgeStyle=orthogonalEdgeStyle;rounded=0;orthogonalLoop=1;jettySize=auto;html=1;exitX=0.5;exitY=1;exitDx=0;exitDy=0;entryX=0.5;entryY=0;entryDx=0;entryDy=0;strokeColor=#003E7D;endSize=5;endArrow=block;endFill=1;" parent="1" source="fu1uBKd0ixMun855dZPL-29" target="fu1uBKd0ixMun855dZPL-30" edge="1">
          <mxGeometry relative="1" as="geometry" />
        </mxCell>
        <mxCell id="fu1uBKd0ixMun855dZPL-47" style="edgeStyle=orthogonalEdgeStyle;rounded=0;orthogonalLoop=1;jettySize=auto;html=1;exitX=1;exitY=0.5;exitDx=0;exitDy=0;entryX=0;entryY=0.5;entryDx=0;entryDy=0;strokeColor=#003E7D;endSize=5;endArrow=block;endFill=1;" parent="1" source="fu1uBKd0ixMun855dZPL-29" target="fu1uBKd0ixMun855dZPL-42" edge="1">
          <mxGeometry relative="1" as="geometry" />
        </mxCell>
        <mxCell id="fu1uBKd0ixMun855dZPL-29" value="commons-framework" style="rounded=1;whiteSpace=wrap;html=1;strokeWidth=0.5;fontSize=10;align=center;labelBackgroundColor=none;fillColor=#e1d5e7;strokeColor=#9673a6;shadow=1;glass=0;" parent="1" vertex="1">
          <mxGeometry x="844" y="339" width="120" height="20" as="geometry" />
        </mxCell>
        <mxCell id="fu1uBKd0ixMun855dZPL-32" style="edgeStyle=orthogonalEdgeStyle;rounded=0;orthogonalLoop=1;jettySize=auto;html=1;exitX=0;exitY=0.5;exitDx=0;exitDy=0;entryX=1;entryY=0.5;entryDx=0;entryDy=0;strokeColor=#EA6B66;dashed=1;endSize=5;endArrow=block;endFill=0;" parent="1" source="fu1uBKd0ixMun855dZPL-30" target="fu1uBKd0ixMun855dZPL-27" edge="1">
          <mxGeometry relative="1" as="geometry" />
        </mxCell>
        <mxCell id="fu1uBKd0ixMun855dZPL-54" style="edgeStyle=orthogonalEdgeStyle;rounded=0;orthogonalLoop=1;jettySize=auto;html=1;exitX=0.25;exitY=1;exitDx=0;exitDy=0;entryX=0.5;entryY=0;entryDx=0;entryDy=0;strokeColor=#003E7D;endSize=5;endArrow=block;endFill=1;" parent="1" source="fu1uBKd0ixMun855dZPL-30" target="fu1uBKd0ixMun855dZPL-52" edge="1">
          <mxGeometry relative="1" as="geometry">
            <Array as="points">
              <mxPoint x="874" y="439" />
              <mxPoint x="839" y="439" />
            </Array>
          </mxGeometry>
        </mxCell>
        <mxCell id="fu1uBKd0ixMun855dZPL-55" style="edgeStyle=orthogonalEdgeStyle;rounded=0;orthogonalLoop=1;jettySize=auto;html=1;exitX=0.75;exitY=1;exitDx=0;exitDy=0;entryX=0.5;entryY=0;entryDx=0;entryDy=0;strokeColor=#003E7D;endSize=5;endArrow=block;endFill=1;" parent="1" source="fu1uBKd0ixMun855dZPL-30" target="fu1uBKd0ixMun855dZPL-53" edge="1">
          <mxGeometry relative="1" as="geometry">
            <Array as="points">
              <mxPoint x="934" y="439" />
              <mxPoint x="979" y="439" />
            </Array>
          </mxGeometry>
        </mxCell>
        <mxCell id="fu1uBKd0ixMun855dZPL-30" value="commons-tools" style="rounded=1;whiteSpace=wrap;html=1;strokeWidth=0.5;fontSize=10;align=center;labelBackgroundColor=none;fillColor=#e1d5e7;strokeColor=#9673a6;shadow=1;glass=0;" parent="1" vertex="1">
          <mxGeometry x="844" y="409" width="120" height="20" as="geometry" />
        </mxCell>
        <mxCell id="fu1uBKd0ixMun855dZPL-39" value="spring-boot-dependencies" style="rounded=1;whiteSpace=wrap;html=1;strokeWidth=0.5;fontSize=10;align=center;labelBackgroundColor=none;fillColor=#bac8d3;strokeColor=#23445d;glass=0;shadow=1;" parent="1" vertex="1">
          <mxGeometry x="454" y="464" width="130" height="20" as="geometry" />
        </mxCell>
        <mxCell id="fu1uBKd0ixMun855dZPL-40" value="grpc-bom" style="rounded=1;whiteSpace=wrap;html=1;strokeWidth=0.5;fontSize=10;align=center;labelBackgroundColor=none;fillColor=#bac8d3;strokeColor=#23445d;shadow=1;" parent="1" vertex="1">
          <mxGeometry x="629.5" y="464" width="79" height="20" as="geometry" />
        </mxCell>
        <mxCell id="fu1uBKd0ixMun855dZPL-42" value="spring-boot-starter-web" style="rounded=1;whiteSpace=wrap;html=1;strokeWidth=0.5;fontSize=10;align=center;labelBackgroundColor=none;fillColor=#bac8d3;strokeColor=#23445d;glass=0;shadow=1;" parent="1" vertex="1">
          <mxGeometry x="1034" y="339" width="130" height="20" as="geometry" />
        </mxCell>
        <mxCell id="fu1uBKd0ixMun855dZPL-52" value="hutool" style="rounded=1;whiteSpace=wrap;html=1;strokeWidth=0.5;fontSize=10;align=center;labelBackgroundColor=none;fillColor=#bac8d3;strokeColor=#23445d;shadow=1;" parent="1" vertex="1">
          <mxGeometry x="804" y="464" width="71" height="20" as="geometry" />
        </mxCell>
        <mxCell id="fu1uBKd0ixMun855dZPL-53" value="commons-xxx" style="rounded=1;whiteSpace=wrap;html=1;strokeWidth=0.5;fontSize=10;align=center;labelBackgroundColor=none;fillColor=#bac8d3;strokeColor=#23445d;shadow=1;" parent="1" vertex="1">
          <mxGeometry x="923" y="464" width="110" height="20" as="geometry" />
        </mxCell>
        <mxCell id="fu1uBKd0ixMun855dZPL-56" value="" style="rounded=0;whiteSpace=wrap;html=1;fontFamily=Helvetica;fontSize=11;fillColor=#FAE1C8;strokeColor=none;shadow=1;" parent="1" vertex="1">
          <mxGeometry x="504" y="267" width="480" height="56" as="geometry" />
        </mxCell>
        <mxCell id="fu1uBKd0ixMun855dZPL-58" style="edgeStyle=orthogonalEdgeStyle;shape=connector;rounded=0;orthogonalLoop=1;jettySize=auto;html=1;exitX=0.25;exitY=1;exitDx=0;exitDy=0;entryX=0.5;entryY=0;entryDx=0;entryDy=0;labelBackgroundColor=default;strokeColor=#EA6B66;fontFamily=Helvetica;fontSize=11;fontColor=default;endArrow=block;dashed=1;endSize=5;endFill=0;" parent="1" source="fu1uBKd0ixMun855dZPL-57" target="fu1uBKd0ixMun855dZPL-28" edge="1">
          <mxGeometry relative="1" as="geometry">
            <Array as="points">
              <mxPoint x="717" y="316" />
              <mxPoint x="594" y="316" />
            </Array>
          </mxGeometry>
        </mxCell>
        <mxCell id="fu1uBKd0ixMun855dZPL-59" style="edgeStyle=orthogonalEdgeStyle;shape=connector;rounded=0;orthogonalLoop=1;jettySize=auto;html=1;exitX=0.75;exitY=1;exitDx=0;exitDy=0;entryX=0.5;entryY=0;entryDx=0;entryDy=0;labelBackgroundColor=default;strokeColor=#003E7D;fontFamily=Helvetica;fontSize=11;fontColor=default;endArrow=block;endSize=5;endFill=1;" parent="1" source="fu1uBKd0ixMun855dZPL-57" target="fu1uBKd0ixMun855dZPL-29" edge="1">
          <mxGeometry relative="1" as="geometry">
            <Array as="points">
              <mxPoint x="772" y="317" />
              <mxPoint x="904" y="317" />
            </Array>
          </mxGeometry>
        </mxCell>
        <mxCell id="fu1uBKd0ixMun855dZPL-57" value="springboot应用" style="rounded=1;whiteSpace=wrap;html=1;strokeWidth=0.5;fontSize=10;align=center;labelBackgroundColor=none;fillColor=#dae8fc;strokeColor=#6c8ebf;shadow=1;glass=0;" parent="1" vertex="1">
          <mxGeometry x="689" y="281" width="110" height="20" as="geometry" />
        </mxCell>
        <mxCell id="jNuLG_-AsigV2Xlp5zPn-1" value="commons-build" style="rounded=1;whiteSpace=wrap;html=1;strokeWidth=0.5;fontSize=10;align=center;labelBackgroundColor=none;fillColor=#e1d5e7;strokeColor=#9673a6;shadow=1;glass=0;" parent="1" vertex="1">
          <mxGeometry x="692" y="339" width="110" height="20" as="geometry" />
        </mxCell>
      </root>
    </mxGraphModel>
  </diagram>
  <diagram id="WFxpio5F13fSqdRWbJtl" name="token">
    <mxGraphModel dx="984" dy="664" grid="0" gridSize="10" guides="1" tooltips="1" connect="1" arrows="1" fold="1" page="1" pageScale="1" pageWidth="3300" pageHeight="4681" math="0" shadow="0">
      <root>
        <mxCell id="0" />
        <mxCell id="1" parent="0" />
        <mxCell id="8KknC9huIigQwGTHXCeY-1" value="客户端" style="shape=umlLifeline;perimeter=lifelinePerimeter;whiteSpace=wrap;html=1;container=1;dropTarget=0;collapsible=0;recursiveResize=0;outlineConnect=0;portConstraint=eastwest;newEdgeStyle={&quot;edgeStyle&quot;:&quot;elbowEdgeStyle&quot;,&quot;elbow&quot;:&quot;vertical&quot;,&quot;curved&quot;:0,&quot;rounded&quot;:0};size=20;labelBackgroundColor=none;fillColor=#FAE5C7;strokeColor=#0F8B8D;fontColor=#143642;" vertex="1" parent="1">
          <mxGeometry x="200" y="160" width="80" height="340" as="geometry" />
        </mxCell>
        <mxCell id="8KknC9huIigQwGTHXCeY-2" value="" style="html=1;points=[];perimeter=orthogonalPerimeter;outlineConnect=0;targetShapes=umlLifeline;portConstraint=eastwest;newEdgeStyle={&quot;edgeStyle&quot;:&quot;elbowEdgeStyle&quot;,&quot;elbow&quot;:&quot;vertical&quot;,&quot;curved&quot;:0,&quot;rounded&quot;:0};labelBackgroundColor=none;fillColor=#FAE5C7;strokeColor=#0F8B8D;fontColor=#143642;" vertex="1" parent="8KknC9huIigQwGTHXCeY-1">
          <mxGeometry x="35" y="40" width="10" height="280" as="geometry" />
        </mxCell>
        <mxCell id="8KknC9huIigQwGTHXCeY-3" value="鉴权服务" style="shape=umlLifeline;perimeter=lifelinePerimeter;whiteSpace=wrap;html=1;container=1;dropTarget=0;collapsible=0;recursiveResize=0;outlineConnect=0;portConstraint=eastwest;newEdgeStyle={&quot;edgeStyle&quot;:&quot;elbowEdgeStyle&quot;,&quot;elbow&quot;:&quot;vertical&quot;,&quot;curved&quot;:0,&quot;rounded&quot;:0};size=20;labelBackgroundColor=none;fillColor=#FAE5C7;strokeColor=#0F8B8D;fontColor=#143642;" vertex="1" parent="1">
          <mxGeometry x="480" y="160" width="80" height="340" as="geometry" />
        </mxCell>
        <mxCell id="8KknC9huIigQwGTHXCeY-4" value="" style="html=1;points=[];perimeter=orthogonalPerimeter;outlineConnect=0;targetShapes=umlLifeline;portConstraint=eastwest;newEdgeStyle={&quot;edgeStyle&quot;:&quot;elbowEdgeStyle&quot;,&quot;elbow&quot;:&quot;vertical&quot;,&quot;curved&quot;:0,&quot;rounded&quot;:0};labelBackgroundColor=none;fillColor=#FAE5C7;strokeColor=#0F8B8D;fontColor=#143642;" vertex="1" parent="8KknC9huIigQwGTHXCeY-3">
          <mxGeometry x="35" y="40" width="10" height="36" as="geometry" />
        </mxCell>
        <mxCell id="8KknC9huIigQwGTHXCeY-26" value="" style="html=1;points=[];perimeter=orthogonalPerimeter;outlineConnect=0;targetShapes=umlLifeline;portConstraint=eastwest;newEdgeStyle={&quot;edgeStyle&quot;:&quot;elbowEdgeStyle&quot;,&quot;elbow&quot;:&quot;vertical&quot;,&quot;curved&quot;:0,&quot;rounded&quot;:0};labelBackgroundColor=none;fillColor=#FAE5C7;strokeColor=#0F8B8D;fontColor=#143642;" vertex="1" parent="8KknC9huIigQwGTHXCeY-3">
          <mxGeometry x="35" y="220" width="10" height="36" as="geometry" />
        </mxCell>
        <mxCell id="8KknC9huIigQwGTHXCeY-27" value="" style="endArrow=classic;endFill=1;endSize=5;html=1;rounded=0;strokeColor=#A8201A;fontColor=#143642;fillColor=#FAE5C7;" edge="1" parent="8KknC9huIigQwGTHXCeY-3">
          <mxGeometry width="160" relative="1" as="geometry">
            <mxPoint x="-228" y="230" as="sourcePoint" />
            <mxPoint x="30" y="230" as="targetPoint" />
          </mxGeometry>
        </mxCell>
        <mxCell id="8KknC9huIigQwGTHXCeY-28" value="" style="endArrow=none;endFill=0;endSize=5;html=1;rounded=0;strokeColor=#A8201A;fontColor=#143642;fillColor=#FAE5C7;startArrow=classic;startFill=1;" edge="1" parent="8KknC9huIigQwGTHXCeY-3">
          <mxGeometry width="160" relative="1" as="geometry">
            <mxPoint x="-230" y="251" as="sourcePoint" />
            <mxPoint x="30" y="251" as="targetPoint" />
          </mxGeometry>
        </mxCell>
        <mxCell id="8KknC9huIigQwGTHXCeY-6" value="资源服务" style="shape=umlLifeline;perimeter=lifelinePerimeter;whiteSpace=wrap;html=1;container=1;dropTarget=0;collapsible=0;recursiveResize=0;outlineConnect=0;portConstraint=eastwest;newEdgeStyle={&quot;edgeStyle&quot;:&quot;elbowEdgeStyle&quot;,&quot;elbow&quot;:&quot;vertical&quot;,&quot;curved&quot;:0,&quot;rounded&quot;:0};size=20;labelBackgroundColor=none;fillColor=#FAE5C7;strokeColor=#0F8B8D;fontColor=#143642;" vertex="1" parent="1">
          <mxGeometry x="760" y="160" width="80" height="340" as="geometry" />
        </mxCell>
        <mxCell id="8KknC9huIigQwGTHXCeY-7" value="" style="html=1;points=[];perimeter=orthogonalPerimeter;outlineConnect=0;targetShapes=umlLifeline;portConstraint=eastwest;newEdgeStyle={&quot;edgeStyle&quot;:&quot;elbowEdgeStyle&quot;,&quot;elbow&quot;:&quot;vertical&quot;,&quot;curved&quot;:0,&quot;rounded&quot;:0};labelBackgroundColor=none;fillColor=#FAE5C7;strokeColor=#0F8B8D;fontColor=#143642;" vertex="1" parent="8KknC9huIigQwGTHXCeY-6">
          <mxGeometry x="35" y="96" width="10" height="41" as="geometry" />
        </mxCell>
        <mxCell id="8KknC9huIigQwGTHXCeY-20" value="" style="html=1;points=[];perimeter=orthogonalPerimeter;outlineConnect=0;targetShapes=umlLifeline;portConstraint=eastwest;newEdgeStyle={&quot;edgeStyle&quot;:&quot;elbowEdgeStyle&quot;,&quot;elbow&quot;:&quot;vertical&quot;,&quot;curved&quot;:0,&quot;rounded&quot;:0};labelBackgroundColor=none;fillColor=#FAE5C7;strokeColor=#0F8B8D;fontColor=#143642;" vertex="1" parent="8KknC9huIigQwGTHXCeY-6">
          <mxGeometry x="35" y="160" width="10" height="41" as="geometry" />
        </mxCell>
        <mxCell id="8KknC9huIigQwGTHXCeY-21" value="" style="endArrow=classic;endFill=1;endSize=5;html=1;rounded=0;strokeColor=#A8201A;fontColor=#143642;fillColor=#FAE5C7;" edge="1" parent="8KknC9huIigQwGTHXCeY-6">
          <mxGeometry width="160" relative="1" as="geometry">
            <mxPoint x="-508" y="172" as="sourcePoint" />
            <mxPoint x="30" y="172" as="targetPoint" />
          </mxGeometry>
        </mxCell>
        <mxCell id="8KknC9huIigQwGTHXCeY-22" value="" style="endArrow=none;endFill=0;endSize=5;html=1;rounded=0;strokeColor=#A8201A;fontColor=#143642;fillColor=#FAE5C7;startArrow=classic;startFill=1;" edge="1" parent="8KknC9huIigQwGTHXCeY-6">
          <mxGeometry width="160" relative="1" as="geometry">
            <mxPoint x="-508" y="192" as="sourcePoint" />
            <mxPoint x="30" y="192" as="targetPoint" />
          </mxGeometry>
        </mxCell>
        <mxCell id="8KknC9huIigQwGTHXCeY-31" value="" style="html=1;points=[];perimeter=orthogonalPerimeter;outlineConnect=0;targetShapes=umlLifeline;portConstraint=eastwest;newEdgeStyle={&quot;edgeStyle&quot;:&quot;elbowEdgeStyle&quot;,&quot;elbow&quot;:&quot;vertical&quot;,&quot;curved&quot;:0,&quot;rounded&quot;:0};labelBackgroundColor=none;fillColor=#FAE5C7;strokeColor=#0F8B8D;fontColor=#143642;" vertex="1" parent="8KknC9huIigQwGTHXCeY-6">
          <mxGeometry x="35" y="279" width="10" height="41" as="geometry" />
        </mxCell>
        <mxCell id="8KknC9huIigQwGTHXCeY-32" value="" style="endArrow=classic;endFill=1;endSize=5;html=1;rounded=0;strokeColor=#A8201A;fontColor=#143642;fillColor=#FAE5C7;" edge="1" parent="8KknC9huIigQwGTHXCeY-6">
          <mxGeometry width="160" relative="1" as="geometry">
            <mxPoint x="-508" y="291" as="sourcePoint" />
            <mxPoint x="30" y="291" as="targetPoint" />
          </mxGeometry>
        </mxCell>
        <mxCell id="8KknC9huIigQwGTHXCeY-34" value="" style="endArrow=none;endFill=0;endSize=5;html=1;rounded=0;strokeColor=#A8201A;fontColor=#143642;fillColor=#FAE5C7;startArrow=classic;startFill=1;" edge="1" parent="8KknC9huIigQwGTHXCeY-6">
          <mxGeometry width="160" relative="1" as="geometry">
            <mxPoint x="-508" y="311" as="sourcePoint" />
            <mxPoint x="30" y="311" as="targetPoint" />
          </mxGeometry>
        </mxCell>
        <mxCell id="8KknC9huIigQwGTHXCeY-8" value="" style="endArrow=classic;endFill=1;endSize=5;html=1;rounded=0;strokeColor=#A8201A;fontColor=#143642;fillColor=#FAE5C7;" edge="1" parent="1">
          <mxGeometry width="160" relative="1" as="geometry">
            <mxPoint x="252" y="210" as="sourcePoint" />
            <mxPoint x="510" y="210" as="targetPoint" />
          </mxGeometry>
        </mxCell>
        <mxCell id="8KknC9huIigQwGTHXCeY-9" value="" style="endArrow=none;endFill=0;endSize=5;html=1;rounded=0;strokeColor=#A8201A;fontColor=#143642;fillColor=#FAE5C7;startArrow=classic;startFill=1;" edge="1" parent="1">
          <mxGeometry width="160" relative="1" as="geometry">
            <mxPoint x="250" y="231" as="sourcePoint" />
            <mxPoint x="510" y="231" as="targetPoint" />
          </mxGeometry>
        </mxCell>
        <mxCell id="8KknC9huIigQwGTHXCeY-10" value="返回 AccessToken &amp;amp; RefreshToken" style="text;html=1;align=center;verticalAlign=middle;resizable=0;points=[];autosize=1;strokeColor=none;fillColor=none;fontColor=#143642;fontSize=10;" vertex="1" parent="1">
          <mxGeometry x="290" y="206" width="180" height="30" as="geometry" />
        </mxCell>
        <mxCell id="8KknC9huIigQwGTHXCeY-11" value="" style="endArrow=classic;endFill=1;endSize=5;html=1;rounded=0;strokeColor=#A8201A;fontColor=#143642;fillColor=#FAE5C7;" edge="1" parent="1">
          <mxGeometry width="160" relative="1" as="geometry">
            <mxPoint x="252" y="268" as="sourcePoint" />
            <mxPoint x="790" y="268" as="targetPoint" />
          </mxGeometry>
        </mxCell>
        <mxCell id="8KknC9huIigQwGTHXCeY-12" value="携带AccessToken，请求资源" style="text;html=1;align=center;verticalAlign=middle;resizable=0;points=[];autosize=1;strokeColor=none;fillColor=none;fontColor=#143642;fontSize=10;" vertex="1" parent="1">
          <mxGeometry x="293" y="246" width="150" height="30" as="geometry" />
        </mxCell>
        <mxCell id="8KknC9huIigQwGTHXCeY-13" value="" style="endArrow=none;endFill=0;endSize=5;html=1;rounded=0;strokeColor=#A8201A;fontColor=#143642;fillColor=#FAE5C7;startArrow=classic;startFill=1;" edge="1" parent="1">
          <mxGeometry width="160" relative="1" as="geometry">
            <mxPoint x="252" y="288" as="sourcePoint" />
            <mxPoint x="790" y="288" as="targetPoint" />
          </mxGeometry>
        </mxCell>
        <mxCell id="8KknC9huIigQwGTHXCeY-14" value="返回资源" style="text;html=1;align=center;verticalAlign=middle;resizable=0;points=[];autosize=1;strokeColor=none;fillColor=none;fontColor=#143642;fontSize=10;" vertex="1" parent="1">
          <mxGeometry x="293" y="265" width="60" height="30" as="geometry" />
        </mxCell>
        <mxCell id="8KknC9huIigQwGTHXCeY-17" value="账号密码登录" style="text;html=1;align=center;verticalAlign=middle;resizable=0;points=[];autosize=1;strokeColor=none;fillColor=none;fontColor=#143642;fontSize=10;" vertex="1" parent="1">
          <mxGeometry x="293" y="186" width="80" height="30" as="geometry" />
        </mxCell>
        <mxCell id="8KknC9huIigQwGTHXCeY-25" value="携带AccessToken（超时），请求资源" style="text;html=1;align=center;verticalAlign=middle;resizable=0;points=[];autosize=1;strokeColor=none;fillColor=none;fontColor=#143642;fontSize=10;" vertex="1" parent="1">
          <mxGeometry x="293" y="310" width="187" height="24" as="geometry" />
        </mxCell>
        <mxCell id="8KknC9huIigQwGTHXCeY-30" value="携带超时RefreshToken，请求刷新token" style="text;html=1;align=center;verticalAlign=middle;resizable=0;points=[];autosize=1;strokeColor=none;fillColor=none;fontColor=#143642;fontSize=10;" vertex="1" parent="1">
          <mxGeometry x="290" y="366" width="200" height="30" as="geometry" />
        </mxCell>
        <mxCell id="8KknC9huIigQwGTHXCeY-23" value="返回 498" style="text;html=1;align=center;verticalAlign=middle;resizable=0;points=[];autosize=1;strokeColor=none;fillColor=none;fontColor=#143642;fontSize=10;" vertex="1" parent="1">
          <mxGeometry x="293" y="329" width="60" height="30" as="geometry" />
        </mxCell>
        <mxCell id="8KknC9huIigQwGTHXCeY-29" value="返回 AccessToken &amp;amp; RefreshToken" style="text;html=1;align=center;verticalAlign=middle;resizable=0;points=[];autosize=1;strokeColor=none;fillColor=none;fontColor=#143642;fontSize=10;" vertex="1" parent="1">
          <mxGeometry x="290" y="388" width="180" height="30" as="geometry" />
        </mxCell>
        <mxCell id="8KknC9huIigQwGTHXCeY-33" value="携带AccessToken（新的），请求资源" style="text;html=1;align=center;verticalAlign=middle;resizable=0;points=[];autosize=1;strokeColor=none;fillColor=none;fontColor=#143642;fontSize=10;" vertex="1" parent="1">
          <mxGeometry x="293" y="429" width="187" height="24" as="geometry" />
        </mxCell>
        <mxCell id="8KknC9huIigQwGTHXCeY-35" value="返回资源" style="text;html=1;align=center;verticalAlign=middle;resizable=0;points=[];autosize=1;strokeColor=none;fillColor=none;fontColor=#143642;fontSize=10;" vertex="1" parent="1">
          <mxGeometry x="293" y="447" width="60" height="30" as="geometry" />
        </mxCell>
      </root>
    </mxGraphModel>
  </diagram>
</mxfile>
